<?xml version="1.0" encoding="UTF-8" standalone="no"?>
<svg
   xmlns="http://www.w3.org/2000/svg"
   height="26"
   width="26"
   version="1.0"
   id="svg25"
  >
  <defs
     id="defs29" />
  <g
     transform="matrix(0.75757574,0,0,0.75757574,2.8791515,-7.9393932)"
     id="g10">
    <path
       stroke-linejoin="miter"
       d="m14.44,29.5c0.222,1.68-3.09,4.06-4.5,5-1.73,1.16-1.74,2.7-3,2.5-0.602-0.545,0.817-2.02,0-2-0.58,0,0.19,1.1-0.5,1.5-0.58,0-2.5,0.4-2.5-2.5,0-1.2,3.5-6.5,3.5-6.5s0.934-1.08,1-2c-0.419-0.575-0.258-1.48,0-2,0.365-0.731,1.5,1.5,1.5,1.5h1s0.5-1.5,1.5-2c0.517-0.258,0.5,2,0.5,2,6.07,0.578,9.29,4.37,9,16.5h-12.5c0-4.9,4.8-3.7,4.5-10.5"
       fill-rule="evenodd"
       stroke="#000"
       stroke-linecap="round"
       stroke-miterlimit="4"
       stroke-dasharray="none"
       stroke-width="1.31999993"
       fill="#FFF"
       id="path4"
       style="fill:#000005;fill-opacity:1" />
    <path
       fill="#000"
       d="m9,23.5a0.5,0.5,0,1,1,-1,0,0.5,0.5,0,1,1,1,0z"
       transform="translate(-3.4999999,10)"
       id="path6"
       style="fill:#ffffff;fill-opacity:1" />
    <path
       fill="#000"
       d="m9.6058,30.28a1.0281,1.4729,30,0,1,-1.7807,-1.028,1.0281,1.4729,30,0,1,1.7807,1.028z"
       id="path8"
       style="fill:#ffffff;fill-opacity:1" />
  </g>
  <g
     transform="translate(0,-4)"
     id="g23">
    <path
       stroke-linejoin="round"
       d="m18,18,4-8-4,4,0-6-3,5.125-2-5-2,5l-3-5.125v6l-4-4,3,8s2.0349-2.5,6-2.5,5,2.5,5,2.5z"
       fill-rule="evenodd"
       stroke="#000"
       stroke-linecap="butt"
       stroke-miterlimit="4"
       stroke-dasharray="none"
       stroke-width="0.80000001"
       fill="#FFF"
       id="path12"
       style="fill:#000000;fill-opacity:1" />
  </g>
  <path
     style="fill:none;fill-rule:evenodd;stroke:#ffffff;stroke-width:0.8;stroke-linecap:round;stroke-linejoin:miter;stroke-miterlimit:4;stroke-dasharray:none;stroke-opacity:1"
     d="m 7.8172158,13.666583 c 1.0336832,-0.723422 2.6899732,-1.922721 4.6453062,-1.91442 2.387741,0.01014 4.168901,0.926115 5.247007,1.557218"
     id="path887" />
</svg>
